<svg xmlns="http://www.w3.org/2000/svg" xmlns:xlink="http://www.w3.org/1999/xlink" viewBox="0 0 97.06 61.17"><defs><style>.cls-1{isolation:isolate;}.cls-2{fill:#fff;opacity:0.3;}.cls-3{fill:#002a39;}.cls-17,.cls-4,.cls-6,.cls-8{fill:none;stroke-miterlimit:10;}.cls-4{stroke:#002a39;}.cls-4,.cls-6{stroke-width:2px;}.cls-5{mix-blend-mode:multiply;}.cls-6{stroke:#40b0e5;}.cls-7{fill:#40b0e5;}.cls-17,.cls-8{stroke:#fff;stroke-width:3px;}.cls-9{fill:url(#linear-gradient);}.cls-10{fill:url(#linear-gradient-2);}.cls-11{fill:url(#linear-gradient-3);}.cls-12{fill:url(#linear-gradient-4);}.cls-13{fill:url(#linear-gradient-5);}.cls-14{fill:url(#linear-gradient-6);}.cls-15{fill:url(#linear-gradient-7);}.cls-16{fill:url(#linear-gradient-8);}.cls-17{opacity:0.5;}</style><linearGradient id="linear-gradient" x1="13.27" y1="55.21" x2="13.27" y2="34.38" gradientUnits="userSpaceOnUse"><stop offset="0" stop-color="#fff" stop-opacity="0.5"/><stop offset="1" stop-color="#fff"/></linearGradient><linearGradient id="linear-gradient-2" x1="21.62" y1="55.21" x2="21.62" y2="26.76" xlink:href="#linear-gradient"/><linearGradient id="linear-gradient-3" x1="29.98" y1="55.21" x2="29.98" y2="20.41" xlink:href="#linear-gradient"/><linearGradient id="linear-gradient-4" x1="38.34" y1="55.21" x2="38.34" y2="29.56" xlink:href="#linear-gradient"/><linearGradient id="linear-gradient-5" x1="46.7" y1="55.21" x2="46.7" y2="40.44" xlink:href="#linear-gradient"/><linearGradient id="linear-gradient-6" x1="55.05" y1="55.21" x2="55.05" y2="43.84" xlink:href="#linear-gradient"/><linearGradient id="linear-gradient-7" x1="63.41" y1="55.21" x2="63.41" y2="45.65" xlink:href="#linear-gradient"/><linearGradient id="linear-gradient-8" x1="71.77" y1="55.21" x2="71.77" y2="43.84" xlink:href="#linear-gradient"/></defs><g class="cls-1"><g id="Layer_1" data-name="Layer 1"><path class="cls-2" d="M44.67,40.56A17.72,17.72,0,1,0,62.57,23,17.73,17.73,0,0,0,44.67,40.56Z" transform="translate(-1.45 -21.52)"/><path class="cls-3" d="M13,37.93a1.61,1.61,0,1,1-1.6-1.6A1.61,1.61,0,0,1,13,37.93Z" transform="translate(-1.45 -21.52)"/><path class="cls-3" d="M34.31,25.43a1.6,1.6,0,1,1-1.6-1.6A1.6,1.6,0,0,1,34.31,25.43Z" transform="translate(-1.45 -21.52)"/><path class="cls-3" d="M64.65,40.87A1.61,1.61,0,1,1,63,39.27,1.6,1.6,0,0,1,64.65,40.87Z" transform="translate(-1.45 -21.52)"/><path class="cls-3" d="M98.51,24.15a1.6,1.6,0,1,1-1.6-1.61A1.6,1.6,0,0,1,98.51,24.15Z" transform="translate(-1.45 -21.52)"/><polyline class="cls-4" points="9.72 16.56 31.3 3.8 61.59 19.45 95.46 2.63"/><g class="cls-5"><polyline class="cls-6" points="9.72 26.76 31.3 10.34 61.59 10.34 95.46 20.41"/><path class="cls-7" d="M13,48.14a1.61,1.61,0,1,1-1.6-1.61A1.6,1.6,0,0,1,13,48.14Z" transform="translate(-1.45 -21.52)"/><path class="cls-7" d="M34.31,31.86a1.6,1.6,0,1,1-1.6-1.6A1.6,1.6,0,0,1,34.31,31.86Z" transform="translate(-1.45 -21.52)"/><path class="cls-7" d="M64.65,31.86A1.61,1.61,0,1,1,63,30.26,1.61,1.61,0,0,1,64.65,31.86Z" transform="translate(-1.45 -21.52)"/><path class="cls-7" d="M98.51,41.93a1.6,1.6,0,1,1-1.6-1.6A1.59,1.59,0,0,1,98.51,41.93Z" transform="translate(-1.45 -21.52)"/></g><path class="cls-8" d="M44.67,40.56A17.72,17.72,0,1,0,62.57,23,17.73,17.73,0,0,0,44.67,40.56Z" transform="translate(-1.45 -21.52)"/><rect class="cls-9" x="11.45" y="34.38" width="3.64" height="20.84"/><rect class="cls-10" x="19.8" y="26.76" width="3.64" height="28.45"/><rect class="cls-11" x="28.16" y="20.41" width="3.64" height="34.8"/><rect class="cls-12" x="36.52" y="29.56" width="3.64" height="25.65"/><rect class="cls-13" x="44.88" y="40.44" width="3.64" height="14.78"/><rect class="cls-14" x="53.23" y="43.84" width="3.64" height="11.38"/><rect class="cls-15" x="61.59" y="45.65" width="3.64" height="9.56"/><rect class="cls-16" x="69.95" y="43.84" width="3.64" height="11.38"/><line class="cls-17" x1="93" y1="59.67" y2="59.67"/><line class="cls-8" x1="72.99" y1="32.21" x2="94.86" y2="53.56"/></g></g></svg>