<svg id="Layer_1" data-name="Layer 1" xmlns="http://www.w3.org/2000/svg" viewBox="0 0 294.7 161.18"><defs><style>.cls-1{fill:#002a3a;}</style></defs><title>Artwork5_b4ea74ad-856c-4686-b07d-7840264f5de9</title><rect class="cls-1" x="89.17" y="10.64" width="25.64" height="140.6"/><path class="cls-1" d="M147.53,10.93H123.66V151.38h24.46V91.25h25.35v60.13h26.38v-51c0-22-3.39-30.65-18.42-34.78l33.89-54.82h-24.9l-33.75,52.9h-9.14Z" transform="translate(0 0)"/><path class="cls-1" d="M227.85,70.33H285V90.66H228.89s-.59,15.33,20.63,31,36.7,8.85,36.7,8.85v20s-43.48,11.5-72.37-36c0,0-19.6-31.1,0-66,11-19.62,30.76-35.69,53.78-37.9a116.2,116.2,0,0,1,17.7-.12V31.57C270,27.59,235.52,37.9,227.85,70.33Z" transform="translate(0 0)"/><path class="cls-1" d="M81.85,50.34C80.14,43,76.86,35.7,71.6,30.18,49.21,6.68,10.09,11.77,9.12,11.82V151.53H32.28V111.15s9.63-2.13,10.19-2.3a71.81,71.81,0,0,0,21-9.87A45.39,45.39,0,0,0,80.57,77.1,47,47,0,0,0,81.85,50.34Zm-49,38.71V33S60.69,37.59,60.69,58.4C60.69,85.89,32.82,89.05,32.82,89.05Z" transform="translate(0 0)"/><path class="cls-1" d="M40.71,78.71V43.9l.68.32c.11.05,11,5.26,11,15.85,0,12-10.91,18.19-11,18.25Zm.95-33.27V77.05c2.36-1.57,9.82-7.29,9.82-17C51.48,51.59,44,46.74,41.66,45.44Z" transform="translate(0 0)"/><path class="cls-1" d="M272.8,161.18c-37.48,0-59.37-31.24-63.93-38.47v38H164.81v-60h-7.22v60H80.09l.19-66.28c-14.43,19-35.45,23.61-38.62,24.22v42.25H0V3.57l.39-.08c27.1-4.91,48,1.19,60.12,7.18A72.45,72.45,0,0,1,79.72,24.13V1.63h77.13V46.18L185.46,1.63h45.16L195.89,60.94l2.6,2.36c12.53-40,37.74-54.74,56.75-60.07a89.35,89.35,0,0,1,38.9-2l.37.08V42.88l-.62-.19c-32-9.95-49.69,14.21-52.68,18.76L294,61.26v39.42H242.34c10.38,15.73,23.73,20.24,33.17,21.24a46.69,46.69,0,0,0,18.55-1.73l.64-.23v37.81l-.34.11A74.91,74.91,0,0,1,272.8,161.18Zm-64.89-42,.9,1.62c.29.52,29.88,52.57,84.94,36.28V121.29c-4.67,1.38-33.87,8.6-52.69-20.83l-.47-.74H293V62.22l-53.48.19.41-.72c.18-.31,18.23-30.69,53.63-20.1V2.12a89.24,89.24,0,0,0-38.1,2c-18.88,5.32-44,20.06-56.28,60.15L199,65l-4.28-3.87.19-.33L229,2.58H186l-30.1,46.85V2.58H80.68v24l-.84-1C79.57,25.34,52-4.73,1,4.36V159.92H40.71V117.81l.4-.06c.24,0,24-4,39.26-25.08l.87-1.19-.19,68.25h75.59v-60h9.12v60h42.15Z" transform="translate(0 0)"/></svg>